<svg width="18" height="18" viewBox="0 0 18 18" fill="none" xmlns="http://www.w3.org/2000/svg">
<path d="M12.0539 7.91849L7.49287 12.7899C7.10604 13.2222 6.5554 13.4721 5.97523 13.4789C5.39511 13.4856 4.8388 13.2485 4.44195 12.8253C3.56528 11.9102 3.58 10.4625 4.4751 9.56553L10.601 3.01508C11.2768 2.2629 12.2385 1.83069 13.2497 1.82481C14.2608 1.81894 15.2275 2.23993 15.9119 2.98422C17.3719 4.59738 17.3615 7.05725 15.8879 8.658L9.39272 15.5971C8.4684 16.5248 7.20309 17.0316 5.8938 16.9985C4.58451 16.9654 3.34644 16.3954 2.47009 15.4222C0.466967 13.163 0.516521 9.74943 2.5844 7.5493L8.71943 1" stroke="#EF7E1A" stroke-linecap="round" stroke-linejoin="round"/>
</svg>
