<svg width="12" height="12" viewBox="0 0 12 12" fill="none" xmlns="http://www.w3.org/2000/svg">
<path d="M5.43801 7.76941L4.32638 8.87933C4.09203 9.11328 3.71948 9.11328 3.47913 8.88532C3.41303 8.81931 3.34693 8.75929 3.28084 8.69328C2.66192 8.06936 2.1031 7.41542 1.60437 6.73148C1.11164 6.04753 0.715052 5.36358 0.426627 4.68563C0.144213 4.00168 0 3.34774 0 2.72378C0 2.31582 0.0721064 1.92585 0.216319 1.56588C0.360532 1.1999 0.588866 0.863933 0.907333 0.563951C1.2919 0.185981 1.71252 0 2.15718 0C2.32543 0 2.49367 0.0359971 2.6439 0.107992C2.80012 0.179986 2.93833 0.287977 3.04649 0.443963L4.44055 2.40581C4.54871 2.5558 4.62682 2.69379 4.6809 2.82578C4.73498 2.95177 4.76503 3.07776 4.76503 3.19175C4.76503 3.33574 4.72296 3.47972 4.63884 3.61772C4.56072 3.75571 4.44655 3.89969 4.30234 4.04368L3.84566 4.51765C3.77957 4.58364 3.74953 4.66164 3.74953 4.75762C3.74953 4.80563 3.75554 4.84762 3.76755 4.89562C3.78558 4.94361 3.80361 4.97961 3.81562 5.01561C3.92378 5.21359 4.11006 5.47157 4.37445 5.78355C4.64485 6.09552 4.93327 6.41349 5.24573 6.73148C5.30582 6.7915 5.37192 6.85144 5.43201 6.91146C5.67236 7.14541 5.67837 7.5294 5.43801 7.76941Z" fill="#E2791D"/>
<path d="M11.9998 9.7982C11.9998 9.96622 11.9698 10.1401 11.9097 10.3082C11.8917 10.3561 11.8737 10.4042 11.8496 10.4521C11.7475 10.6681 11.6152 10.8721 11.4411 11.0641C11.1466 11.3881 10.8221 11.6221 10.4556 11.7721C10.4496 11.7721 10.4436 11.778 10.4376 11.778C10.083 11.922 9.69843 12 9.28386 12C8.67096 12 8.016 11.856 7.32492 11.5621C6.63392 11.2681 5.94292 10.8721 5.25791 10.3742C5.02356 10.2002 4.78922 10.0262 4.56689 9.84019L6.53175 7.87838C6.70003 8.00433 6.85024 8.10035 6.97646 8.16636C7.00652 8.17833 7.04257 8.19629 7.08462 8.21433C7.13266 8.23229 7.18071 8.23835 7.23483 8.23835C7.33699 8.23835 7.41509 8.20235 7.4812 8.13634L7.93783 7.68634C8.08811 7.53637 8.23232 7.42239 8.37046 7.35039C8.50868 7.26642 8.6469 7.22437 8.79711 7.22437C8.91126 7.22437 9.03149 7.24839 9.16363 7.30242C9.29585 7.35638 9.43407 7.43436 9.58428 7.53637L11.5732 8.94624C11.7295 9.05424 11.8376 9.18026 11.9037 9.33024C11.9638 9.48022 11.9998 9.63019 11.9998 9.7982Z" fill="#E2791D"/>
</svg>
