<svg width="18" height="18" viewBox="0 0 18 18" fill="none" xmlns="http://www.w3.org/2000/svg">
<path d="M1 0.5C0.723858 0.5 0.5 0.723858 0.5 1C0.5 1.27614 0.723858 1.5 1 1.5L1 0.5ZM3.22222 1L3.70729 0.878732C3.65165 0.656149 3.45166 0.5 3.22222 0.5V1ZM15.2222 13.0556C15.4984 13.0556 15.7222 12.8317 15.7222 12.5556C15.7222 12.2794 15.4984 12.0556 15.2222 12.0556V13.0556ZM17 2.77778L17.4851 2.89905C17.5224 2.74968 17.4889 2.59143 17.3941 2.47007C17.2993 2.34871 17.154 2.27778 17 2.27778V2.77778ZM15.2222 9.88889V10.3889C15.4517 10.3889 15.6516 10.2327 15.7073 10.0102L15.2222 9.88889ZM1 1.5H3.22222V0.5H1L1 1.5ZM2.73715 1.12127L3.1816 2.89905L4.15174 2.65651L3.70729 0.878732L2.73715 1.12127ZM3.1816 2.89905L4.95937 10.0102L5.92952 9.76762L4.15174 2.65651L3.1816 2.89905ZM5.44444 9.38889H5V10.3889H5.44444V9.38889ZM5 13.0556H15.2222V12.0556H5V13.0556ZM3.16667 11.2222C3.16667 12.2347 3.98748 13.0556 5 13.0556V12.0556C4.53976 12.0556 4.16667 11.6825 4.16667 11.2222H3.16667ZM5 9.38889C3.98748 9.38889 3.16667 10.2097 3.16667 11.2222H4.16667C4.16667 10.762 4.53976 10.3889 5 10.3889V9.38889ZM3.66667 3.27778H17V2.27778H3.66667V3.27778ZM16.5149 2.65651L14.7372 9.76762L15.7073 10.0102L17.4851 2.89905L16.5149 2.65651ZM15.2222 9.38889H5.44444V10.3889H15.2222V9.38889ZM14.7222 16.1111C14.7222 16.3259 14.5481 16.5 14.3333 16.5V17.5C15.1004 17.5 15.7222 16.8782 15.7222 16.1111H14.7222ZM14.3333 16.5C14.1186 16.5 13.9444 16.3259 13.9444 16.1111H12.9444C12.9444 16.8782 13.5663 17.5 14.3333 17.5V16.5ZM13.9444 16.1111C13.9444 15.8963 14.1186 15.7222 14.3333 15.7222V14.7222C13.5663 14.7222 12.9444 15.344 12.9444 16.1111H13.9444ZM14.3333 15.7222C14.5481 15.7222 14.7222 15.8963 14.7222 16.1111H15.7222C15.7222 15.344 15.1004 14.7222 14.3333 14.7222V15.7222ZM5.83333 16.1111C5.83333 16.3259 5.65922 16.5 5.44444 16.5V17.5C6.21151 17.5 6.83333 16.8782 6.83333 16.1111H5.83333ZM5.44444 16.5C5.22967 16.5 5.05556 16.3259 5.05556 16.1111H4.05556C4.05556 16.8782 4.67738 17.5 5.44444 17.5V16.5ZM5.05556 16.1111C5.05556 15.8963 5.22967 15.7222 5.44444 15.7222V14.7222C4.67738 14.7222 4.05556 15.344 4.05556 16.1111H5.05556ZM5.44444 15.7222C5.65922 15.7222 5.83333 15.8963 5.83333 16.1111H6.83333C6.83333 15.344 6.21151 14.7222 5.44444 14.7222V15.7222Z" fill="#3F3F3F"/>
</svg>
