<svg width="16" height="16" viewBox="0 0 16 16" fill="none" xmlns="http://www.w3.org/2000/svg">
<path d="M9.5 0C11.1569 0 12.5 1.34315 12.5 3H15.5C15.7761 3 16 3.22386 16 3.5C16 3.77614 15.7761 4 15.5 4L14 3.9995V13C14 14.6569 12.6569 16 11 16H5C3.34315 16 2 14.6569 2 13V4H0.5C0.223858 4 0 3.77614 0 3.5C0 3.22386 0.223858 3 0.5 3H3.5C3.5 1.34315 4.84315 0 6.5 0H9.5ZM13 4H3V13C3 14.0711 3.84198 14.9455 4.90018 14.9976L5 15H11C12.0711 15 12.9455 14.158 12.9976 13.0998L13 13V4ZM6.5 7C6.77614 7 7 7.22386 7 7.5V11C7 11.2761 6.77614 11.5 6.5 11.5C6.22386 11.5 6 11.2761 6 11V7.5C6 7.22386 6.22386 7 6.5 7ZM9.5 7C9.77614 7 10 7.22386 10 7.5V11C10 11.2761 9.77614 11.5 9.5 11.5C9.22386 11.5 9 11.2761 9 11V7.5C9 7.22386 9.22386 7 9.5 7ZM9.5 1H6.5C5.4289 1 4.55446 1.84198 4.50245 2.90018L4.5 3H8H11.5C11.5 1.9289 10.658 1.05446 9.59982 1.00245L9.5 1Z" fill="black"/>
</svg>
