<svg width="25" height="29" viewBox="0 0 25 29" fill="none" xmlns="http://www.w3.org/2000/svg">
<path d="M16.1295 9.67026V2.2876C13.9164 3.13379 11.7034 4.09113 9.49042 4.93733V11.9184C11.7034 11.2049 13.9164 10.3838 16.1295 9.67385V9.67026Z" fill="#F17E1A"/>
<path d="M8.00687 5.48584C5.66347 6.32127 3.32008 6.9846 0.976685 7.22484C0.976685 9.37976 0.976685 11.5347 0.976685 13.6896C3.32008 13.5928 5.66347 13.0729 8.00687 12.3773C8.00687 10.0789 8.00687 7.78418 8.00687 5.48584Z" fill="#F17E1A"/>
<path d="M8.00687 13.7649C5.66347 14.4282 3.32008 14.923 0.976685 14.9912C0.976685 17.0385 0.976685 19.0823 0.976685 21.1296C3.32008 21.1978 5.66347 20.8392 8.00687 20.3085C8.00687 18.1285 8.00687 15.9449 8.00687 13.7649Z" fill="#F17E1A"/>
<path d="M24.6397 7.90257V0C22.2963 0.236647 19.9529 0.899975 17.6095 1.739V9.21489C19.9529 8.52287 22.2963 7.99938 24.6397 7.90257Z" fill="#F17E1A"/>
<path d="M0.976685 22.4277C0.976685 24.5826 0.976685 26.7375 0.976685 28.8924C3.32008 29.1291 5.66347 28.9426 8.00687 28.5841C8.00687 26.2857 8.00687 23.991 8.00687 21.6926C5.66347 22.1946 3.32008 22.5209 0.976685 22.4277Z" fill="#F17E1A"/>
<path d="M17.613 10.7172V17.813C19.9564 17.2824 22.2998 16.9274 24.6432 16.992V9.49097C22.2998 9.55909 19.9564 10.0503 17.613 10.7172Z" fill="#F17E1A"/>
<path d="M9.49042 19.95C11.7034 19.3906 13.9164 18.7273 16.1295 18.168V11.1582C13.9164 11.843 11.7034 12.6355 9.49042 13.3239V19.9536V19.95Z" fill="#F17E1A"/>
<path d="M17.613 26.7913C19.9564 26.4327 22.2998 26.2463 24.6432 26.4829V18.5803C22.2998 18.4835 19.9564 18.8134 17.613 19.3154V26.7913Z" fill="#F17E1A"/>
<path d="M9.49042 21.3555V28.3366C11.7034 27.9386 13.9164 27.4366 16.1295 27.0386V19.6523C13.9164 20.183 11.7034 20.8212 9.49042 21.3519V21.3555Z" fill="#F17E1A"/>
</svg>
