<svg width="12" height="16" viewBox="0 0 12 16" fill="none" xmlns="http://www.w3.org/2000/svg">
<path d="M12 2.75627C12 2.55147 11.929 2.41495 11.787 2.2784L9.65681 0.230402C9.44379 0.0256022 9.23077 -0.0426697 9.01775 0.0256022H1.1361C0.639053 -0.0426697 0.142023 0.36693 0 0.913074V14.9077C0 15.5221 0.497047 16 1.1361 16H10.7929C11.432 16 11.929 15.5221 11.929 14.9077V2.8928L12 2.75627C12 2.82455 12 2.82455 12 2.75627ZM11.2899 2.75627C11.3609 2.82455 11.2899 2.96107 11.2189 2.96107H9.30176C9.08875 2.96107 8.94674 2.82455 8.94674 2.61975V0.776546C8.94674 0.640018 9.08875 0.640018 9.15976 0.708274L11.2899 2.75627ZM11.3609 14.9077C11.3609 15.1808 11.1479 15.3856 10.8639 15.3856H1.1361C0.852071 15.3856 0.639053 15.1808 0.639053 14.9077V0.98133C0.710064 0.77653 0.852071 0.640002 1.1361 0.640002H8.23669V2.61975C8.23669 3.16587 8.66273 3.64375 9.30178 3.64375H11.3609V14.9077Z" fill="#3F3F3F"/>
</svg>
