<svg width="193" height="29" viewBox="0 0 193 29" fill="none" xmlns="http://www.w3.org/2000/svg">
<g clip-path="url(#clip0_8690_132)">
<path d="M192.765 23.5607V26.2355H180.967V23.5607H185.632V10.52C185.435 10.7853 185.128 11.0722 184.713 11.3734C184.297 11.6746 183.825 11.9578 183.3 12.2267C182.774 12.4957 182.249 12.7144 181.721 12.8793C181.196 13.0478 180.713 13.1303 180.276 13.1303V10.3228C180.759 10.3228 181.287 10.183 181.869 9.90329C182.45 9.62362 183.014 9.29733 183.564 8.91726C184.11 8.53719 184.575 8.18222 184.959 7.84877C185.343 7.51531 185.569 7.28225 185.632 7.146H188.589V23.5643H192.765V23.5607Z" fill="#141718"/>
<path d="M164.129 9.67026V2.2876C161.916 3.13379 159.703 4.09113 157.49 4.93733V11.9184C159.703 11.2049 161.916 10.3838 164.129 9.67385V9.67026Z" fill="#F17E1A"/>
<path d="M156.007 5.48584C153.663 6.32127 151.32 6.9846 148.977 7.22484C148.977 9.37976 148.977 11.5347 148.977 13.6896C151.32 13.5928 153.663 13.0729 156.007 12.3773C156.007 10.0789 156.007 7.78418 156.007 5.48584Z" fill="#F17E1A"/>
<path d="M156.007 13.7649C153.663 14.4282 151.32 14.923 148.977 14.9912C148.977 17.0385 148.977 19.0823 148.977 21.1296C151.32 21.1978 153.663 20.8392 156.007 20.3085C156.007 18.1285 156.007 15.9449 156.007 13.7649Z" fill="#F17E1A"/>
<path d="M172.64 7.90257V0C170.296 0.236647 167.953 0.899975 165.609 1.739V9.21489C167.953 8.52287 170.296 7.99938 172.64 7.90257Z" fill="#F17E1A"/>
<path d="M148.977 22.4277C148.977 24.5826 148.977 26.7375 148.977 28.8924C151.32 29.1291 153.663 28.9426 156.007 28.5841C156.007 26.2857 156.007 23.991 156.007 21.6926C153.663 22.1946 151.32 22.5209 148.977 22.4277Z" fill="#F17E1A"/>
<path d="M165.613 10.7172V17.813C167.956 17.2824 170.3 16.9274 172.643 16.992V9.49097C170.3 9.55909 167.956 10.0503 165.613 10.7172Z" fill="#F17E1A"/>
<path d="M157.49 19.95C159.703 19.3906 161.916 18.7273 164.129 18.168V11.1582C161.916 11.843 159.703 12.6355 157.49 13.3239V19.9536V19.95Z" fill="#F17E1A"/>
<path d="M165.613 26.7913C167.956 26.4327 170.3 26.2463 172.643 26.4829V18.5803C170.3 18.4835 167.956 18.8134 165.613 19.3154V26.7913Z" fill="#F17E1A"/>
<path d="M157.49 21.3555V28.3366C159.703 27.9386 161.916 27.4366 164.129 27.0386V19.6523C161.916 20.183 159.703 20.8212 157.49 21.3519V21.3555Z" fill="#F17E1A"/>
<path d="M0 7.15308H15.2233V26.2462H12.235V9.81356H2.98827V26.2462H0V7.15308Z" fill="#221F20"/>
<path d="M27.3279 26.3789C25.9888 26.3789 24.7695 26.1064 23.6665 25.5578C22.5636 25.0128 21.6192 24.285 20.8263 23.3814C20.0334 22.4779 19.4202 21.4416 18.9903 20.2763C18.5569 19.111 18.3419 17.9206 18.3419 16.6979C18.3419 15.4753 18.571 14.206 19.0291 13.0407C19.4872 11.8754 20.118 10.8463 20.9179 9.94991C21.7178 9.05352 22.6693 8.33999 23.7723 7.81292C24.8717 7.28584 26.0769 7.02051 27.3807 7.02051C28.6846 7.02051 29.9391 7.30377 31.0421 7.8667C32.1415 8.43322 33.0859 9.17184 33.8682 10.0862C34.6506 11.0005 35.2602 12.0367 35.6936 13.1913C36.1236 14.3494 36.342 15.5255 36.342 16.7266C36.342 17.9995 36.1165 19.2186 35.669 20.3839C35.2179 21.5492 34.5907 22.5747 33.7802 23.4639C32.9697 24.3531 32.0147 25.0595 30.9117 25.5901C29.8087 26.1208 28.6176 26.3825 27.3314 26.3825L27.3279 26.3789ZM21.3549 16.6979C21.3549 17.5943 21.4958 18.4656 21.7777 19.3046C22.0596 20.1472 22.4614 20.893 22.9794 21.5384C23.4974 22.1838 24.1282 22.7002 24.8682 23.0838C25.6082 23.4711 26.4363 23.6611 27.3525 23.6611C28.2688 23.6611 29.1462 23.4603 29.8757 23.0551C30.6051 22.6535 31.2288 22.1193 31.7398 21.456C32.2508 20.7926 32.6384 20.0504 32.9027 19.2222C33.167 18.3975 33.2974 17.5549 33.2974 16.6943C33.2974 15.78 33.1564 14.9052 32.8745 14.0733C32.5926 13.2379 32.1909 12.5064 31.6729 11.8682C31.1513 11.2335 30.5276 10.7208 29.7946 10.3372C29.0616 9.9535 28.2476 9.75987 27.349 9.75987C26.3976 9.75987 25.5518 9.96067 24.8118 10.3658C24.0718 10.7674 23.4445 11.2945 22.9371 11.9399C22.4261 12.5853 22.035 13.3239 21.7601 14.1594C21.4852 14.9912 21.3513 15.841 21.3513 16.7015L21.3549 16.6979Z" fill="#221F20"/>
<path d="M38.1886 16.5654C38.1886 15.418 38.3894 14.2742 38.7982 13.1376C39.2035 12.001 39.799 10.9791 40.5813 10.0719C41.3636 9.16838 42.3221 8.43693 43.4498 7.88117C44.5774 7.3254 45.8531 7.04932 47.2838 7.04932C48.9929 7.04932 50.4553 7.43656 51.671 8.20387C52.8868 8.97476 53.803 9.97872 54.4197 11.2157L52.0939 12.8006C51.8296 12.2269 51.5125 11.7428 51.1425 11.3484C50.7725 10.954 50.3672 10.642 49.9267 10.409C49.4862 10.1759 49.0281 10.011 48.5524 9.91059C48.0767 9.81378 47.6186 9.76358 47.1781 9.76358C46.1914 9.76358 45.328 9.96438 44.588 10.3695C43.848 10.7711 43.2278 11.3054 42.7238 11.9687C42.2199 12.632 41.8429 13.3778 41.5856 14.2025C41.3284 15.0272 41.2015 15.8519 41.2015 16.6765C41.2015 17.6088 41.3495 18.498 41.6491 19.3406C41.9486 20.1832 42.3679 20.9254 42.9036 21.5744C43.4392 22.2198 44.0806 22.7361 44.8206 23.1198C45.5606 23.507 46.3711 23.6971 47.2521 23.6971C47.7102 23.6971 48.1824 23.6397 48.6652 23.5214C49.1479 23.4066 49.6166 23.2166 50.0641 22.9549C50.5152 22.6967 50.9275 22.3668 51.3081 21.9724C51.6851 21.578 51.9988 21.1047 52.2454 20.5454L54.7051 21.9724C54.4056 22.6895 53.9827 23.3206 53.4365 23.8692C52.8903 24.4178 52.2736 24.8767 51.5865 25.2532C50.8993 25.6297 50.1734 25.9165 49.4052 26.1137C48.6405 26.3109 47.8864 26.4113 47.1463 26.4113C45.8249 26.4113 44.6162 26.1245 43.5238 25.5508C42.4314 24.9771 41.4905 24.2277 40.6976 23.3062C39.9047 22.3848 39.288 21.3342 38.8476 20.1617C38.4071 18.9892 38.1851 17.7917 38.1851 16.5726L38.1886 16.5654Z" fill="#221F20"/>
<path d="M71.2005 9.81356H64.9632V26.2462H61.9749V9.81356H55.713V7.15308H71.2005V9.81356Z" fill="#221F20"/>
<path d="M76.7683 7.15308H79.3584L86.7586 26.2462H83.6399L81.6595 21.0543H74.4179L72.4621 26.2462H69.3152L76.7683 7.15308ZM81.0745 18.8241L78.0616 10.6203L74.9429 18.8241H81.0745Z" fill="#221F20"/>
<path d="M104.544 21.3232C104.544 22.0941 104.389 22.7861 104.082 23.3921C103.772 24.0016 103.36 24.5179 102.842 24.9375C102.32 25.3605 101.71 25.6832 101.006 25.9056C100.301 26.1314 99.5538 26.2426 98.7574 26.2426H89.7961V7.15308H99.4693C100.121 7.15308 100.71 7.2965 101.238 7.58334C101.767 7.87019 102.214 8.24309 102.584 8.69845C102.954 9.15382 103.24 9.67731 103.444 10.2582C103.645 10.8426 103.747 11.4271 103.747 12.0187C103.747 12.9509 103.515 13.8258 103.046 14.6397C102.577 15.4572 101.915 16.0596 101.051 16.454C102.126 16.7767 102.976 17.3647 103.603 18.2145C104.227 19.0679 104.54 20.1005 104.54 21.3196L104.544 21.3232ZM92.7562 9.75978V15.3819H98.2007C98.5707 15.3819 98.909 15.3102 99.2191 15.1668C99.5256 15.0234 99.8005 14.8298 100.037 14.5895C100.276 14.3493 100.459 14.0553 100.593 13.7146C100.727 13.374 100.791 12.9975 100.791 12.5852C100.791 11.7605 100.562 11.0828 100.104 10.5558C99.6455 10.0287 99.064 9.76336 98.3592 9.76336H92.7562V9.75978ZM101.503 20.7603C101.503 20.3659 101.436 19.9894 101.305 19.6308C101.171 19.2723 100.995 18.9567 100.777 18.6914C100.555 18.4225 100.287 18.2074 99.9697 18.046C99.6525 17.8847 99.3072 17.8058 98.9407 17.8058H92.7562V23.6395H98.7539C99.1415 23.6395 99.501 23.5642 99.8357 23.41C100.171 23.2594 100.459 23.0514 100.71 22.7897C100.956 22.5315 101.15 22.2268 101.291 21.8754C101.432 21.524 101.503 21.1547 101.503 20.7603Z" fill="#221F20"/>
<path d="M111.803 15.2493H113.759L119.707 7.15308H123.09L116.377 16.3787L123.696 26.2462H120.313L114.051 17.9635H111.803V26.2462H108.815V7.15308H111.803V15.2493Z" fill="#221F20"/>
<path d="M132.886 7.15308H135.477L142.877 26.2462H139.758L137.778 21.0543H130.536L128.58 26.2462H125.433L132.886 7.15308ZM137.196 18.8241L134.183 10.6203L131.065 18.8241H137.196Z" fill="#221F20"/>
</g>
<defs>
<clipPath id="clip0_8690_132">
<rect width="192.765" height="29" fill="white"/>
</clipPath>
</defs>
</svg>
