<svg width="20" height="20" viewBox="0 0 20 20" fill="none" xmlns="http://www.w3.org/2000/svg">
<path d="M9.99999 0C8.02219 0 6.08879 0.586501 4.44429 1.6853C2.79979 2.7841 1.51809 4.3459 0.761193 6.1732C0.0042932 8.0004 -0.193707 10.0111 0.192193 11.9509C0.577993 13.8907 1.53039 15.6726 2.92889 17.071C4.32749 18.4696 6.10929 19.422 8.04909 19.8078C9.98889 20.1937 11.9996 19.9957 13.8268 19.2388C15.6541 18.4819 17.2159 17.2002 18.3147 15.5557C19.4135 13.9112 20 11.9778 20 10C19.9969 7.3488 18.9423 4.8071 17.0676 2.9324C15.193 1.0577 12.6512 0.0031 9.99999 0ZM9.99999 18.1818C8.38179 18.1818 6.79989 17.7019 5.45439 16.803C4.10889 15.9039 3.06019 14.6261 2.44099 13.131C1.82169 11.636 1.65969 9.991 1.97539 8.4038C2.29109 6.8167 3.07029 5.3588 4.21459 4.2146C5.35879 3.0703 6.81669 2.2911 8.40379 1.9754C9.99099 1.6597 11.636 1.8217 13.131 2.441C14.6261 3.0602 15.9039 4.1089 16.803 5.4544C17.702 6.7999 18.1818 8.3818 18.1818 10C18.1792 12.1691 17.3163 14.2486 15.7825 15.7825C14.2487 17.3163 12.1691 18.1792 9.99999 18.1818Z" fill="#EF7E1A"/>
<path d="M12.4167 7.00499L8.61815 10.8037L7.63995 9.82549C7.33795 9.52359 6.84825 9.52359 6.54625 9.82549C6.24435 10.1275 6.24435 10.6172 6.54625 10.9192L8.07135 12.4442C8.37335 12.7462 8.86305 12.7462 9.16505 12.4442L13.5105 8.09869C13.8125 7.79669 13.8125 7.30699 13.5105 7.00499C13.2085 6.70309 12.7187 6.70309 12.4167 7.00499Z" fill="#EF7E1A"/>
<path d="M9.16505 12.4442C8.86305 12.7462 8.37335 12.7462 8.07135 12.4442L6.54625 10.9192C6.24435 10.6172 6.24435 10.1275 6.54625 9.82549C6.84825 9.52359 7.33795 9.52359 7.63995 9.82549L8.61815 10.8037L12.4167 7.00499C12.7187 6.70309 13.2085 6.70309 13.5105 7.00499C13.8125 7.30699 13.8125 7.79669 13.5105 8.09869L9.16505 12.4442ZM9.16505 12.4442L9.10845 12.3877" stroke="#EF7E1A" stroke-width="0.2"/>
</svg>
