<svg width="18" height="18" viewBox="0 0 18 18" fill="none" xmlns="http://www.w3.org/2000/svg">
<path d="M5.79995 17.0001H12.1999C14.4626 17.0001 15.5939 17.0001 16.2969 16.2971C16.9998 15.5942 16.9998 14.4628 16.9998 12.2001V11.4001C16.9998 9.13742 16.9998 8.00607 16.2969 7.30312C15.6822 6.68841 14.7399 6.61125 12.9999 6.60156M4.99996 6.60156C3.25995 6.61125 2.31763 6.68841 1.70294 7.30311C1 8.00607 1 9.13742 1 11.4001V12.2001C1 14.4628 1 15.5942 1.70294 16.2971C1.94277 16.5369 2.23248 16.6949 2.59998 16.7991" stroke="#3F3F3F" stroke-linecap="round"/>
<path d="M8.99959 1V11.3999M8.99959 11.3999L6.59961 8.59993M8.99959 11.3999L11.3996 8.59993" stroke="#3F3F3F" stroke-linecap="round" stroke-linejoin="round"/>
</svg>
