<svg width="18" height="16" viewBox="0 0 18 16" fill="none" xmlns="http://www.w3.org/2000/svg">
<path d="M1.30209 6.68331C1.30209 6.68331 8.77164 3.37065 11.3622 2.20418C12.3553 1.73763 15.723 0.244539 15.723 0.244539C15.723 0.244539 17.2774 -0.408631 17.1479 1.1777C17.1047 1.83094 16.7593 4.11713 16.4139 6.59C15.8957 10.0893 15.3345 13.9152 15.3345 13.9152C15.3345 13.9152 15.2481 14.9884 14.5141 15.175C13.7801 15.3617 12.5711 14.5219 12.3553 14.3352C12.1825 14.1952 9.11704 12.0956 7.99445 11.0691C7.6922 10.7892 7.34681 10.2293 8.0376 9.57611C9.59198 8.0364 11.4486 6.12345 12.5711 4.91036C13.0893 4.35043 13.6074 3.04403 11.4486 4.63036C8.38305 6.91662 5.36069 9.06288 5.36069 9.06288C5.36069 9.06288 4.66984 9.52942 3.37456 9.1095C2.07922 8.68964 0.568044 8.12971 0.568044 8.12971C0.568044 8.12971 -0.468133 7.42986 1.30209 6.68331Z" fill="#0186C9"/>
</svg>
