<svg width="24" height="24" viewBox="0 0 24 24" fill="none" xmlns="http://www.w3.org/2000/svg">
<rect width="24" height="24" rx="12" fill="url(#paint0_linear_8653_330)"/>
<g clip-path="url(#clip0_8653_330)" filter="url(#filter0_i_8653_330)">
<path d="M4.55292 19.1871L5.60196 15.2864C4.75593 13.767 4.48714 11.9939 4.84491 10.2925C5.20268 8.59112 6.16301 7.07562 7.54969 6.02408C8.93636 4.97254 10.6564 4.4555 12.3941 4.56784C14.1318 4.68018 15.7706 5.41435 17.0099 6.63565C18.2491 7.85694 19.0057 9.48343 19.1406 11.2167C19.2756 12.9499 18.7801 14.6736 17.7448 16.0714C16.7095 17.4693 15.2041 18.4476 13.5047 18.8267C11.8052 19.2059 10.0259 18.9605 8.49304 18.1356L4.55292 19.1871ZM8.68302 16.676L8.9267 16.8203C10.037 17.4773 11.3337 17.7492 12.6149 17.5935C13.8961 17.4379 15.0897 16.8636 16.0098 15.96C16.9299 15.0564 17.5248 13.8744 17.7017 12.598C17.8786 11.3217 17.6276 10.0228 16.9879 8.90372C16.3481 7.78465 15.3555 6.90829 14.1648 6.4112C12.9741 5.91411 11.6521 5.82421 10.4049 6.15552C9.15764 6.48683 8.05521 7.22073 7.26939 8.24286C6.48356 9.26499 6.05849 10.5179 6.06041 11.8064C6.05936 12.8748 6.35532 13.9225 6.91534 14.8329L7.06815 15.0844L6.48168 17.2615L8.68302 16.676Z" fill="white"/>
<path fill-rule="evenodd" clip-rule="evenodd" d="M14.5972 12.808C14.4544 12.6929 14.2871 12.612 14.1082 12.5713C13.9293 12.5305 13.7434 12.5311 13.5647 12.5729C13.2963 12.6843 13.1228 13.1048 12.9493 13.3151C12.9127 13.3655 12.859 13.4009 12.7982 13.4146C12.7373 13.4282 12.6736 13.4193 12.6189 13.3893C11.6361 13.005 10.8123 12.3003 10.2813 11.3896C10.236 11.3327 10.2146 11.2606 10.2215 11.1883C10.2284 11.116 10.2632 11.0492 10.3184 11.002C10.5119 10.8108 10.654 10.5739 10.7315 10.3134C10.7487 10.026 10.6827 9.73975 10.5415 9.48874C10.4323 9.13685 10.2245 8.82351 9.94261 8.58575C9.79723 8.52047 9.63604 8.49859 9.47847 8.52273C9.32091 8.54687 9.17371 8.61602 9.05464 8.72182C8.84791 8.89988 8.68383 9.12196 8.57447 9.37172C8.46511 9.62148 8.41325 9.89254 8.42273 10.165C8.42337 10.3179 8.44279 10.4703 8.48055 10.6185C8.57646 10.9747 8.72394 11.315 8.91834 11.6287C9.0586 11.869 9.21163 12.1016 9.37679 12.3255C9.91351 13.0611 10.5882 13.6857 11.3634 14.1645C11.7524 14.4079 12.1681 14.6057 12.6024 14.7541C13.0535 14.9583 13.5516 15.0367 14.0438 14.9809C14.3242 14.9386 14.5899 14.828 14.8175 14.6591C15.0451 14.4901 15.2276 14.2679 15.3489 14.012C15.4202 13.8574 15.4419 13.6845 15.4109 13.5172C15.3365 13.1749 14.8781 12.9729 14.5972 12.808Z" fill="white"/>
</g>
<defs>
<filter id="filter0_i_8653_330" x="4.55292" y="4.55273" width="14.6343" height="15.1343" filterUnits="userSpaceOnUse" color-interpolation-filters="sRGB">
<feFlood flood-opacity="0" result="BackgroundImageFix"/>
<feBlend mode="normal" in="SourceGraphic" in2="BackgroundImageFix" result="shape"/>
<feColorMatrix in="SourceAlpha" type="matrix" values="0 0 0 0 0 0 0 0 0 0 0 0 0 0 0 0 0 0 127 0" result="hardAlpha"/>
<feOffset dy="0.5"/>
<feGaussianBlur stdDeviation="1.25"/>
<feComposite in2="hardAlpha" operator="arithmetic" k2="-1" k3="1"/>
<feColorMatrix type="matrix" values="0 0 0 0 0 0 0 0 0 0 0 0 0 0 0 0 0 0 0.1 0"/>
<feBlend mode="normal" in2="shape" result="effect1_innerShadow_8653_330"/>
</filter>
<linearGradient id="paint0_linear_8653_330" x1="13.6587" y1="24.7157" x2="2.43905" y2="-5.13947e-07" gradientUnits="userSpaceOnUse">
<stop stop-color="#00D95F"/>
<stop offset="1" stop-color="#07FF74"/>
</linearGradient>
<clipPath id="clip0_8653_330">
<rect width="14.6343" height="14.6343" fill="white" transform="translate(4.55292 4.55273)"/>
</clipPath>
</defs>
</svg>
